
<svg width="24" height="24" viewBox="0 0 24 24" fill="none" xmlns="http://www.w3.org/2000/svg">
  <path d="M12 6C10.3431 6 9 7.34315 9 9C9 10.6569 10.3431 12 12 12C13.6569 12 15 10.6569 15 9C15 7.34315 13.6569 6 12 6Z" stroke="currentColor" stroke-width="1.5" stroke-linecap="round" stroke-linejoin="round"/>
  <path d="M18 14C18 14 17 13 15 13C13 13 12 14 12 14" stroke="currentColor" stroke-width="1.5" stroke-linecap="round" stroke-linejoin="round"/>
  <path d="M9 14C7.89543 14 7 14.8954 7 16V18C7 19.1046 7.89543 20 9 20H15C16.1046 20 17 19.1046 17 18V16C17 14.8954 16.1046 14 15 14H9Z" stroke="currentColor" stroke-width="1.5" stroke-linecap="round" stroke-linejoin="round"/>
</svg>
